<svg width="2000" height="1500" viewBox="0 0 2000 1500" fill="none" xmlns="http://www.w3.org/2000/svg">
<g clip-path="url(#clip0_1_2)">
<g clip-path="url(#clip1_1_2)">
<g clip-path="url(#clip2_1_2)">
<g clip-path="url(#clip3_1_2)">
<g clip-path="url(#clip4_1_2)">
<g clip-path="url(#clip5_1_2)">
<g clip-path="url(#clip6_1_2)">
<g clip-path="url(#clip7_1_2)">
<g clip-path="url(#clip8_1_2)">
<g clip-path="url(#clip9_1_2)">
<path d="M398.462 1366.26V1145.34H473.475C492.466 1145.34 507.342 1150.51 518.104 1160.85C528.865 1171.19 534.246 1185.01 534.246 1202.31C534.246 1215.6 531.038 1226.05 524.624 1233.64C518.167 1241.24 509.874 1246.62 499.746 1249.79V1250.74C512.195 1253.69 522.429 1259.22 530.448 1267.32C538.466 1275.47 542.475 1287.24 542.475 1302.64C542.475 1311.51 540.998 1319.84 538.044 1327.65C535.09 1335.46 530.933 1342.21 525.573 1347.91C520.172 1353.6 513.841 1358.08 506.583 1361.33C499.282 1364.62 491.411 1366.26 482.971 1366.26H398.462ZM425.049 1343.16H475.058C487.296 1343.16 496.897 1340.41 503.861 1334.93C510.824 1329.44 514.305 1321 514.305 1309.61V1296.63C514.305 1285.45 510.824 1277.05 503.861 1271.44C496.897 1265.87 487.296 1263.08 475.058 1263.08H425.049V1343.16ZM425.049 1241.24H470.627C481.81 1241.24 490.567 1238.75 496.897 1233.77C503.228 1228.83 506.393 1221.3 506.393 1211.17V1198.83C506.393 1188.7 503.228 1181.1 496.897 1176.04C490.567 1170.98 481.81 1168.44 470.627 1168.44H425.049V1241.24ZM658.319 1370.06C646.502 1370.06 635.888 1368.06 626.477 1364.05C617.109 1360.04 609.09 1354.28 602.422 1346.77C595.797 1339.3 590.69 1330.33 587.103 1319.86C583.516 1309.44 581.723 1297.79 581.723 1284.92C581.723 1271.84 583.558 1260.02 587.23 1249.47C590.944 1238.92 596.071 1229.89 602.612 1222.38C609.154 1214.91 617.003 1209.17 626.161 1205.16C635.361 1201.15 645.553 1199.14 656.736 1199.14C667.708 1199.14 677.668 1201.15 686.615 1205.16C695.604 1209.17 703.263 1214.7 709.593 1221.74C715.924 1228.83 720.777 1237.23 724.153 1246.94C727.529 1256.64 729.217 1267.3 729.217 1278.91V1290.93H608.31V1298.53C608.31 1305.7 609.47 1312.35 611.791 1318.47C614.112 1324.59 617.425 1329.86 621.73 1334.3C626.076 1338.73 631.352 1342.14 637.555 1344.55C643.801 1347 650.722 1348.22 658.319 1348.22C669.291 1348.22 678.786 1345.69 686.805 1340.63C694.823 1335.56 700.942 1328.6 705.162 1319.74L723.837 1332.4C718.983 1343.37 710.902 1352.4 699.592 1359.49C688.324 1366.54 674.566 1370.06 658.319 1370.06ZM656.736 1220.03C649.773 1220.03 643.337 1221.3 637.429 1223.83C631.52 1226.36 626.393 1229.85 622.046 1234.28C617.742 1238.71 614.366 1243.92 611.918 1249.91C609.512 1255.95 608.31 1262.55 608.31 1269.73V1271.94H701.997V1268.46C701.997 1261.29 700.879 1254.75 698.642 1248.84C696.448 1242.93 693.388 1237.8 689.463 1233.45C685.581 1229.15 680.833 1225.84 675.22 1223.52C669.65 1221.19 663.488 1220.03 656.736 1220.03ZM848.226 1370.06C836.409 1370.06 825.796 1368.06 816.385 1364.05C807.016 1360.04 798.998 1354.28 792.33 1346.77C785.704 1339.3 780.598 1330.33 777.011 1319.86C773.423 1309.44 771.63 1297.79 771.63 1284.92C771.63 1271.84 773.466 1260.02 777.137 1249.47C780.809 1238.92 785.936 1229.89 792.52 1222.38C799.061 1214.91 806.91 1209.17 816.068 1205.16C825.268 1201.15 835.46 1199.14 846.643 1199.14C857.616 1199.14 867.575 1201.15 876.522 1205.16C885.511 1209.17 893.171 1214.7 899.501 1221.74C905.831 1228.83 910.663 1237.23 913.997 1246.94C917.415 1256.64 919.125 1267.3 919.125 1278.91V1290.93H798.217V1298.53C798.217 1305.7 799.356 1312.35 801.635 1318.47C803.998 1324.59 807.332 1329.86 811.637 1334.3C815.984 1338.73 821.259 1342.14 827.463 1344.55C833.708 1347 840.629 1348.22 848.226 1348.22C859.198 1348.22 868.694 1345.69 876.712 1340.63C884.688 1335.56 890.786 1328.6 895.006 1319.74L913.744 1332.4C908.891 1343.37 900.809 1352.4 889.499 1359.49C878.231 1366.54 864.473 1370.06 848.226 1370.06ZM846.643 1220.03C839.68 1220.03 833.244 1221.3 827.336 1223.83C821.428 1226.36 816.3 1229.85 811.954 1234.28C807.649 1238.71 804.273 1243.92 801.825 1249.91C799.42 1255.95 798.217 1262.55 798.217 1269.73V1271.94H891.841V1268.46C891.841 1261.29 890.744 1254.75 888.549 1248.84C886.355 1242.93 883.295 1237.8 879.371 1233.45C875.488 1229.15 870.74 1225.84 865.128 1223.52C859.557 1221.19 853.395 1220.03 846.643 1220.03ZM1110.23 1343.16V1366.26H962.74V1339.04L1036.49 1272.58C1047.25 1262.87 1056.11 1252.89 1063.07 1242.63C1070.04 1232.42 1073.52 1221.62 1073.52 1210.22V1206.42C1073.52 1193.13 1070.04 1182.83 1063.07 1175.53C1056.11 1168.27 1045.77 1164.64 1032.06 1164.64C1018.55 1164.64 1008.17 1168.06 1000.91 1174.9C993.61 1181.78 988.166 1190.92 984.579 1202.31L960.841 1193.45C962.951 1186.91 965.863 1180.51 969.577 1174.27C973.248 1168.06 977.932 1162.53 983.63 1157.68C989.327 1152.83 996.248 1148.92 1004.39 1145.97C1012.5 1143.02 1021.93 1141.54 1032.69 1141.54C1043.66 1141.54 1053.43 1143.12 1062 1146.29C1070.52 1149.45 1077.7 1153.88 1083.52 1159.58C1089.3 1165.28 1093.73 1172.03 1096.81 1179.84C1099.85 1187.64 1101.37 1196.19 1101.37 1205.47C1101.37 1213.92 1100.17 1221.83 1097.76 1229.21C1095.32 1236.6 1091.94 1243.67 1087.64 1250.42C1083.29 1257.17 1078.12 1263.76 1072.13 1270.17C1066.09 1276.63 1059.38 1283.02 1052 1289.35L990.276 1343.16H1110.23ZM1158.03 1366.26V1145.34H1233.04C1252.03 1145.34 1266.91 1150.51 1277.67 1160.85C1288.43 1171.19 1293.81 1185.01 1293.81 1202.31C1293.81 1215.6 1290.58 1226.05 1284.13 1233.64C1277.71 1241.24 1269.44 1246.62 1259.31 1249.79V1250.74C1271.76 1253.69 1282 1259.22 1290.01 1267.32C1298.03 1275.47 1302.04 1287.24 1302.04 1302.64C1302.04 1311.51 1300.56 1319.84 1297.61 1327.65C1294.66 1335.46 1290.5 1342.21 1285.14 1347.91C1279.74 1353.6 1273.41 1358.08 1266.15 1361.33C1258.85 1364.62 1250.98 1366.26 1242.54 1366.26H1158.03ZM1184.61 1343.16H1234.62C1246.86 1343.16 1256.46 1340.41 1263.43 1334.93C1270.39 1329.44 1273.87 1321 1273.87 1309.61V1296.63C1273.87 1285.45 1270.39 1277.05 1263.43 1271.44C1256.46 1265.87 1246.86 1263.08 1234.62 1263.08H1184.61V1343.16ZM1184.61 1241.24H1230.19C1241.38 1241.24 1250.13 1238.75 1256.46 1233.77C1262.79 1228.83 1265.96 1221.3 1265.96 1211.17V1198.83C1265.96 1188.7 1262.79 1181.1 1256.46 1176.04C1250.13 1170.98 1241.38 1168.44 1230.19 1168.44H1184.61V1241.24ZM1417.88 1370.06C1406.07 1370.06 1395.45 1368.06 1386.04 1364.05C1376.67 1360.04 1368.66 1354.28 1361.99 1346.77C1355.36 1339.3 1350.26 1330.33 1346.67 1319.86C1343.08 1309.44 1341.29 1297.79 1341.29 1284.92C1341.29 1271.84 1343.12 1260.02 1346.8 1249.47C1350.51 1238.92 1355.64 1229.89 1362.18 1222.38C1368.72 1214.91 1376.57 1209.17 1385.73 1205.16C1394.93 1201.15 1405.12 1199.14 1416.3 1199.14C1427.27 1199.14 1437.23 1201.15 1446.18 1205.16C1455.17 1209.17 1462.83 1214.7 1469.16 1221.74C1475.49 1228.83 1480.34 1237.23 1483.72 1246.94C1487.1 1256.64 1488.78 1267.3 1488.78 1278.91V1290.93H1367.88V1298.53C1367.88 1305.7 1369.04 1312.35 1371.36 1318.47C1373.68 1324.59 1376.99 1329.86 1381.3 1334.3C1385.64 1338.73 1390.92 1342.14 1397.12 1344.55C1403.37 1347 1410.29 1348.22 1417.88 1348.22C1428.86 1348.22 1438.35 1345.69 1446.37 1340.63C1454.39 1335.56 1460.51 1328.6 1464.73 1319.74L1483.4 1332.4C1478.55 1343.37 1470.47 1352.4 1459.16 1359.49C1447.89 1366.54 1434.13 1370.06 1417.88 1370.06ZM1416.3 1220.03C1409.34 1220.03 1402.9 1221.3 1396.99 1223.83C1391.09 1226.36 1385.96 1229.85 1381.61 1234.28C1377.31 1238.71 1373.93 1243.92 1371.48 1249.91C1369.08 1255.95 1367.88 1262.55 1367.88 1269.73V1271.94H1461.56V1268.46C1461.56 1261.29 1460.44 1254.75 1458.21 1248.84C1456.01 1242.93 1452.95 1237.8 1449.03 1233.45C1445.15 1229.15 1440.4 1225.84 1434.79 1223.52C1429.22 1221.19 1423.05 1220.03 1416.3 1220.03ZM1607.79 1370.06C1595.98 1370.06 1585.36 1368.06 1575.95 1364.05C1566.58 1360.04 1558.56 1354.28 1551.9 1346.77C1545.27 1339.3 1540.16 1330.33 1536.58 1319.86C1532.99 1309.44 1531.2 1297.79 1531.2 1284.92C1531.2 1271.84 1533.03 1260.02 1536.7 1249.47C1540.42 1238.92 1545.54 1229.89 1552.09 1222.38C1558.63 1214.91 1566.48 1209.17 1575.63 1205.16C1584.83 1201.15 1595.03 1199.14 1606.21 1199.14C1617.18 1199.14 1627.14 1201.15 1636.09 1205.16C1645.08 1209.17 1652.74 1214.7 1659.07 1221.74C1665.4 1228.83 1670.25 1237.23 1673.63 1246.94C1677 1256.64 1678.69 1267.3 1678.69 1278.91V1290.93H1557.78V1298.53C1557.78 1305.7 1558.94 1312.35 1561.26 1318.47C1563.59 1324.59 1566.9 1329.86 1571.2 1334.3C1575.55 1338.73 1580.82 1342.14 1587.03 1344.55C1593.27 1347 1600.2 1348.22 1607.79 1348.22C1618.76 1348.22 1628.26 1345.69 1636.28 1340.63C1644.3 1335.56 1650.42 1328.6 1654.64 1319.74L1673.31 1332.4C1668.46 1343.37 1660.37 1352.4 1649.06 1359.49C1637.8 1366.54 1624.04 1370.06 1607.79 1370.06ZM1606.21 1220.03C1599.25 1220.03 1592.81 1221.3 1586.9 1223.83C1580.99 1226.36 1575.87 1229.85 1571.52 1234.28C1567.21 1238.71 1563.84 1243.92 1561.39 1249.91C1558.99 1255.95 1557.78 1262.55 1557.78 1269.73V1271.94H1651.47V1268.46C1651.47 1261.29 1650.35 1254.75 1648.12 1248.84C1645.92 1242.93 1642.86 1237.8 1638.94 1233.45C1635.05 1229.15 1630.31 1225.84 1624.69 1223.52C1619.12 1221.19 1612.96 1220.03 1606.21 1220.03Z" fill="white"/>
</g>
</g>
</g>
</g>
</g>
</g>
</g>
</g>
</g>
<g clip-path="url(#clip10_1_2)">
<path d="M1687.4 187.46C1706.19 221.156 1750.81 245.95 1744.42 288.708C1705.11 341.057 1636.78 379.832 1620.13 446.852C1576.04 462.567 1528.88 460.037 1482.92 465.24C1499.45 530.65 1409.51 525.995 1381.14 565.549C1336.39 610.571 1264.69 571.814 1210.08 573.548C1209.69 605.386 1236.59 613.775 1261.63 601.386C1272.43 646.143 1297.2 687.042 1325.04 723.021C1343.84 737.94 1317.31 751.532 1305.73 758.327C1279.88 723.021 1258.57 684.387 1244.85 642.834C1209.94 629.384 1203.28 572.221 1160.26 591.263C1143.87 577.017 1132.42 558.222 1118.3 541.852C1117.77 544.507 1117.22 546.914 1116.97 549.303L1100.99 547.037C1106.46 509.607 1092.87 470.567 1075.01 437.26L1070.22 443.649C1031.58 509.997 937.927 446.445 878.375 477.893C920.867 553.302 1005.2 578.999 1089.4 581.937L1092.34 596.997C1071.3 602.873 1022.11 662.142 998.683 623.915C982.95 587.405 991.745 645.63 970.296 635.773C918.867 661.752 897.949 616.323 865.049 595.67C873.455 624.977 873.721 662.018 903.948 678.406C933.114 711.305 985.356 692.528 1016.52 723.977C1039.83 729.958 1066.07 720.242 1080.73 701.324L1092.73 703.324C1092.34 726.631 1091.54 773.264 1091.12 796.589L1078.75 795.793C1100.71 665.097 1069.54 742.913 1048.89 768.344C1028.77 771.813 1009.05 765.548 989.338 762.486C976.809 804.589 923.663 769.548 891.967 771.14C915.009 841.081 997.072 859.999 1062.77 862.53C1074.48 844.142 1080.75 810.305 1103.79 838.161C1097.4 896.633 1034.38 886.103 1003.34 921.427C985.887 952.858 982.419 994.164 945.909 1011.35C947.254 983.103 978.154 935.691 940.847 922.1C892.746 918.365 885.419 860.937 843.724 844.16C822.398 799.527 828.398 749.16 822.947 701.342C792.313 717.322 801.621 756.221 782.437 780.732C742.477 821.366 692.641 856.796 674.66 913.552C668.66 914.366 656.803 915.959 650.945 916.755C669.333 822.18 759.519 769.017 787.233 678.954C723.151 715.323 766.457 603.014 771.253 568.77C722.903 599.811 704.374 662.035 688.393 714.915C679.067 715.305 660.413 716.119 651.087 716.508C668.944 672.548 676.394 623.65 704.232 584.485C682.518 565.301 647.618 576.362 628.823 553.178C600.985 516.014 549.822 538.401 510.658 525.871C492.411 483.504 452.964 463.647 412.737 448.197C400.084 415.952 436.718 412.218 440.841 386.256L441.248 377.602C466.414 378.805 492.535 377.602 515.312 381.336C529.842 359.214 548.088 341.234 570.475 327.235C557.149 303.52 534.496 278.478 505.596 275.948C476.024 272.479 426.064 242.11 438.063 294.601L437.266 294.742C424.205 251.313 353.593 247.579 330.958 210.007C376.121 211.086 407.959 251.437 451.92 251.047C473.758 209.352 438.593 153.269 394.898 153.269L394.757 145.818C453.902 145.553 516.392 161.799 570.475 173.656C649.069 227.74 728.619 280.903 808.541 333.517C832.521 355.905 864.501 334.579 891.401 330.456C891.525 330.332 891.79 330.332 891.932 330.332C883.932 342.72 874.747 354.312 866.872 366.7C898.179 365.904 881.791 391.618 878.729 410.254C894.71 403.051 918.035 369.479 922.159 403.989C957.2 399.6 996.364 410.785 1022.34 434.906C1019.69 392.804 1060.98 433.172 1077.1 408.13C1071.38 365.904 1060.57 324.333 1048.86 283.434C1044.06 283.168 1034.59 282.637 1029.81 282.372C1010.22 244.535 969.323 228.147 932.547 211.228C919.363 235.881 918.832 269.718 883.118 269.984C850.219 292.636 879.791 231.085 851.139 236.412C810.24 356.701 879.384 275.718 919.752 276.514C912.956 290.513 901.099 301.432 887.118 308.352C872.854 315.413 856.484 318.333 841.016 315.802C808.01 258.073 861.421 181.744 811.868 129.377C850.113 124.05 866.359 176.399 856.36 206.521C870.624 244.092 907.382 201.459 932.83 199.99C972.26 201.848 1012.1 196.398 1050.2 209.458C1076.32 188.416 1093.35 150.172 1132.79 143.783C1128.67 180.682 1090.3 199.07 1073.65 230.253C1056.85 228.518 1040.08 225.315 1023.14 224.253C1036.06 249.437 1065.24 255.436 1088.16 267.683C1098.14 301.644 1098.14 336.296 1092.02 370.806C1196.47 361.745 1274.53 280.744 1353.15 218.537C1399.37 169.25 1472.78 165.392 1534.31 149.8C1584.43 166.011 1640.91 160.826 1687.4 187.46ZM1703.66 288.177C1712.72 212.909 1626.52 172.4 1561.64 186.398C1546.58 205.176 1513.41 218.891 1519.82 247.278C1571.25 288.584 1641.17 344.136 1703.66 288.177ZM1652.5 332.668C1603.87 354.117 1581.74 317.094 1553.37 293.911C1526.05 306.83 1499.68 321.483 1474.23 337.747C1447.05 333.748 1421.35 318.705 1393.9 316.829C1403.35 316.687 1417.62 312.705 1439.19 303.237C1444.39 274.603 1404.7 279.523 1410.7 250.888C1427.76 249.968 1444.8 249.702 1461.98 250.092C1454.66 272.072 1449.84 294.849 1451.19 318.032C1475.43 315.236 1497.56 302.848 1516.74 288.053C1527.39 260.869 1496.62 255.666 1479.17 245.685C1491.17 225.439 1549.64 184.54 1522.46 175.621C1469.97 183.744 1420.54 202.662 1372.98 226.112C1394.43 258.215 1357.68 316.563 1393.5 316.829C1386.98 316.439 1380.45 316.829 1373.66 318.156C1340.49 350.401 1391.9 406.626 1421.76 367.585C1447.74 340.933 1477.7 376.646 1505.54 380.894C1578.42 331.606 1562.68 424.199 1607.72 423.12C1604.54 383.708 1647.29 368.116 1652.5 332.668ZM1555.37 448.586C1584.15 429.278 1578.68 361.055 1509.15 404.095C1483.58 401.299 1463.59 383.318 1440.94 375.991C1424.29 389.583 1395.37 395.034 1397.11 421.545C1450.8 424.872 1502.23 441.791 1555.37 448.586ZM1465.06 488.671C1458.39 459.506 1424.96 457.895 1402.18 468.567C1367.92 484.813 1332.76 502.811 1292.12 492.14C1297.72 518.12 1303.72 543.958 1307.72 570.345C1364.61 554.488 1404.96 501.732 1465.06 488.671ZM1399.78 436.729C1390.31 437.933 1371.27 440.322 1361.8 441.384C1324.62 449.507 1287.72 458.302 1250.69 466.567C1254.69 471.363 1262.69 480.955 1266.68 485.751C1312.39 474.832 1374.33 484.282 1399.78 436.729ZM1309.18 405.157C1415.09 464.709 1369 339.747 1318.25 383.318C1333.7 357.869 1356.76 334.827 1359.16 303.644C1342.1 302.317 1325.45 303.379 1309.06 306.971C1286.14 334.544 1251.1 399.688 1309.18 405.157ZM1331.31 291.256C1360.21 303.786 1386.45 253.826 1348.08 253.56C1337.43 260.073 1306.12 284.319 1331.31 291.256ZM1224.86 556.753C1244.7 556.488 1291.86 563.142 1287.74 533.18C1264.02 515.324 1244.7 484.141 1210.73 489.344C1240.96 502.935 1226.98 531.322 1224.86 556.753ZM1290.8 302.034C1285.22 303.503 1274.27 306.564 1268.82 308.033C1237.26 330.155 1208.34 354.808 1182.1 382.115C1191.16 387.035 1199.16 390.238 1206.2 392.096C1197.02 393.689 1186.63 396.627 1175.59 400.892C1161.98 404.891 1151.2 412.218 1143.08 422.872C1181.06 423.934 1230.73 396.22 1251.38 438.056C1257.51 410.873 1249.92 396.361 1233.14 392.096C1264.02 381.301 1268.29 329.482 1290.8 302.034ZM1213.12 437.26C1194.61 436.588 1176.08 436.729 1157.57 437.384C1159.84 464.426 1167.55 490.406 1172.22 517.04C1153.31 490.264 1138.53 458.816 1103.88 449.772C1108.81 490.795 1137.86 523.305 1171.43 544.896C1171.55 537.976 1171.94 523.96 1172.22 517.04C1181.14 532.897 1192.06 546.913 1212.57 543.834C1199.94 508.669 1158.65 460.037 1213.12 437.26ZM979.87 916.065C974.933 902.597 994.241 859.84 975.198 868.494C953.076 883.289 928.707 885.413 903.523 878.475C918.849 906.331 952.545 907.659 979.87 916.065ZM890.728 557.019C886.463 599.121 930.3 600.855 960.669 596.183C942.299 576.468 914.319 568.876 890.728 557.019ZM808.807 542.631C806.134 517.589 838.521 459.506 815.868 455.099C785.747 461.895 753.378 465.364 734.194 492.795C720.072 542.1 745.114 569.69 808.807 542.631ZM826.787 433.667C809.868 407.157 776.031 407.688 750.175 394.768C765.89 362.665 723.257 367.992 703.277 358.931C712.072 395.299 760.705 404.891 762.174 445.525C783.623 441.118 805.196 437.26 826.787 433.667ZM786.826 357.197C760.988 324.156 719.541 299.521 678.783 289.115C687.561 341.605 740.725 355.993 786.826 357.197ZM718.886 409.811C701.843 409.404 684.924 410.201 668.13 412.2C650.945 431.65 644.557 468.16 612.046 463.629C580.067 462.302 562.883 493.609 544.23 514.651C578.333 519.04 616.17 513.058 642.946 537.835C675.049 516.792 707.294 494.405 733.929 466.425C723.151 465.098 701.684 462.567 690.906 461.24C693.437 440.994 708.763 426.606 718.886 409.811ZM678.642 383.831C706.622 326.686 640.415 262.338 583.801 290.583C581.27 324.952 634.557 320.421 626.434 356.931C599.127 327.766 574.209 332.827 557.149 368.382C597.641 372.381 637.619 384.238 678.642 383.831ZM584.863 222.643C582.863 266.603 630.027 285.929 667.599 276.195C638.15 260.869 616.701 231.686 584.863 222.643ZM575.006 453.506C588.863 425.261 650.538 454.179 637.743 412.873C590.579 407.015 545.026 385.69 496.535 402.343C473.617 409.404 430.984 412.607 439.779 446.71C481.351 442.304 497.455 489.078 529.435 499.732C540.885 488.158 563.538 464.974 575.006 453.506ZM572.068 223.97C581.27 166.56 493.332 210.113 464.821 170.542C448.433 230.624 538.106 227.563 572.068 223.97ZM584.863 278.054C578.474 251.419 566.475 226.501 534.372 238.234C495.455 270.054 561.148 274.727 584.863 278.054Z" fill="#F0C905"/>
<path d="M1215.92 844.655C1253.49 862.778 1282.94 900.332 1278.53 943.779C1242.71 949.106 1232.57 916.861 1248.43 890.35C1232.31 892.899 1212.72 904.738 1204.86 883.024C1068.84 922.064 1206.61 681.591 1092.69 703.306L1080.69 701.306C1088.55 691.042 1093.08 678.122 1091.75 663.469C1106.94 607.244 1104 593.794 1092.28 596.997L1089.35 581.937C1095.49 570.61 1099.08 558.895 1100.94 547.037L1116.92 549.303C1109.59 611.527 1200.98 604.731 1210.84 664C1191.14 722.879 1205.94 784.962 1215.92 844.655Z" fill="#F0C905"/>
<path d="M441.248 377.584L440.841 386.238C379.165 423.279 343.063 354.4 296.43 326.952C290.041 282.195 273.653 239.951 255 199.052C293.634 159.091 342.797 146.031 394.739 145.765L394.881 153.216C384.758 153.216 374.086 156.277 363.574 163.197C340.514 172.258 317.472 181.178 293.368 187.319C290.43 242.871 295.899 310.936 353.575 336.119C372.246 369.178 405.818 375.974 441.248 377.584Z" fill="#F0C905"/>
<path d="M438.045 294.583C440.045 303.644 444.027 315.236 450.292 329.889C328.391 352.011 396.474 306.175 439.107 315.236C439.779 307.502 439.107 300.706 437.248 294.725L438.045 294.583Z" fill="#F0C905"/>
</g>
</g>
<defs>
<clipPath id="clip0_1_2">
<rect width="2000" height="1500" fill="white"/>
</clipPath>
<clipPath id="clip1_1_2">
<rect width="1696.87" height="1058" fill="white" transform="translate(152 415)"/>
</clipPath>
<clipPath id="clip2_1_2">
<rect width="1694.17" height="1058.86" fill="white" transform="translate(153.351 414.572)"/>
</clipPath>
<clipPath id="clip3_1_2">
<rect width="1694.17" height="1058.86" fill="white" transform="translate(191.491 726.372)"/>
</clipPath>
<clipPath id="clip4_1_2">
<rect width="1355.34" height="279.164" fill="white" transform="translate(360.908 1116.22)"/>
</clipPath>
<clipPath id="clip5_1_2">
<rect width="1355.34" height="279.164" fill="white" transform="translate(360.908 1116.22)"/>
</clipPath>
<clipPath id="clip6_1_2">
<rect width="1355.34" height="279.164" fill="white" transform="translate(360.908 1116.22)"/>
</clipPath>
<clipPath id="clip7_1_2">
<rect width="1355.34" height="279.164" fill="white" transform="translate(360.908 1116.22)"/>
</clipPath>
<clipPath id="clip8_1_2">
<rect width="1355.34" height="279.164" fill="white" transform="translate(360.908 1116.22)"/>
</clipPath>
<clipPath id="clip9_1_2">
<rect width="1355.34" height="279.164" fill="white" transform="translate(360.908 1116.22)"/>
</clipPath>
<clipPath id="clip10_1_2">
<rect width="1490.04" height="882.348" fill="white" transform="translate(255 129)"/>
</clipPath>
</defs>
</svg>
