<svg width="1491" height="883" viewBox="0 0 1491 883" fill="none" xmlns="http://www.w3.org/2000/svg">
<g clip-path="url(#clip0_1_55)">
<path d="M1432.4 58.4603C1451.19 92.1563 1495.81 116.95 1489.42 159.708C1450.11 212.057 1381.78 250.832 1365.13 317.852C1321.04 333.567 1273.88 331.037 1227.92 336.24C1244.45 401.65 1154.51 396.995 1126.14 436.549C1081.39 481.571 1009.69 442.814 955.079 444.548C954.69 476.386 981.59 484.775 1006.63 472.386C1017.43 517.143 1042.2 558.042 1070.04 594.021C1088.84 608.94 1062.31 622.532 1050.73 629.327C1024.88 594.021 1003.57 555.387 989.854 513.834C954.937 500.384 948.283 443.221 905.26 462.263C888.873 448.017 877.422 429.222 863.3 412.852C862.769 415.507 862.22 417.914 861.972 420.303L845.992 418.037C851.46 380.607 837.868 341.567 820.012 308.26L815.216 314.649C776.582 380.997 682.927 317.445 623.375 348.893C665.867 424.302 750.195 449.999 834.4 452.937L837.338 467.997C816.295 473.873 767.114 533.142 743.683 494.915C727.95 458.405 736.745 516.63 715.296 506.773C663.867 532.752 642.949 487.323 610.049 466.67C618.455 495.977 618.721 533.018 648.948 549.406C678.114 582.305 730.356 563.528 761.522 594.977C784.829 600.958 811.075 591.242 825.728 572.324L837.727 574.324C837.338 597.631 836.541 644.264 836.117 667.589L823.746 666.793C845.708 536.097 814.543 613.913 793.89 639.344C773.768 642.813 754.053 636.548 734.338 633.486C721.809 675.589 668.663 640.548 636.967 642.14C660.009 712.081 742.072 730.999 807.765 733.53C819.481 715.142 825.746 681.305 848.788 709.161C842.399 767.633 779.378 757.103 748.337 792.427C730.887 823.858 727.419 865.164 690.909 882.348C692.254 854.103 723.154 806.691 685.847 793.1C637.746 789.365 630.419 731.937 588.724 715.16C567.398 670.527 573.398 620.16 567.947 572.342C537.313 588.322 546.621 627.221 527.437 651.732C487.476 692.366 437.64 727.796 419.66 784.552C413.66 785.366 401.803 786.959 395.945 787.755C414.333 693.18 504.519 640.017 532.233 549.954C468.151 586.323 511.457 474.014 516.253 439.77C467.903 470.811 449.374 533.035 433.393 585.915C424.067 586.305 405.413 587.119 396.087 587.508C413.944 543.548 421.394 494.65 449.232 455.485C427.518 436.301 392.618 447.362 373.823 424.178C345.985 387.014 294.822 409.401 255.657 396.871C237.411 354.504 197.964 334.647 157.737 319.197C145.084 286.952 181.717 283.218 185.841 257.256L186.248 248.602C211.414 249.805 237.535 248.602 260.312 252.336C274.842 230.214 293.088 212.234 315.475 198.235C302.149 174.52 279.496 149.478 250.596 146.948C221.024 143.479 171.064 113.11 183.062 165.601L182.266 165.742C169.205 122.313 98.5925 118.579 75.9575 81.0069C121.121 82.0865 152.959 122.437 196.92 122.047C218.758 80.3521 183.593 24.2688 139.898 24.2688L139.757 16.8182C198.902 16.5528 261.391 32.799 315.475 44.6563C394.069 98.7398 473.619 151.903 553.541 204.517C577.521 226.905 609.501 205.579 636.401 201.456C636.525 201.332 636.79 201.332 636.932 201.332C628.932 213.72 619.747 225.312 611.872 237.7C643.179 236.904 626.791 262.618 623.729 281.254C639.71 274.051 663.035 240.479 667.159 274.989C702.2 270.6 741.364 281.785 767.344 305.906C764.69 263.804 805.978 304.172 822.1 279.13C816.384 236.904 805.571 195.333 793.855 154.434C789.059 154.168 779.591 153.637 774.812 153.372C755.221 115.535 714.323 99.1468 677.547 82.228C664.363 106.881 663.832 140.718 628.118 140.984C595.219 163.636 624.791 102.085 596.139 107.412C555.24 227.701 624.384 146.718 664.752 147.514C657.956 161.513 646.099 172.432 632.118 179.352C617.854 186.413 601.484 189.333 586.016 186.802C553.01 129.073 606.421 52.7441 556.868 0.377268C595.112 -4.94967 611.359 47.3994 601.36 77.5205C615.624 115.092 652.381 72.459 677.83 70.9902C717.26 72.8484 757.097 67.3976 795.2 80.4583C821.321 59.416 838.346 21.1718 877.794 14.783C873.67 51.6822 835.302 70.0699 818.649 101.253C801.854 99.5185 785.077 96.3152 768.141 95.2534C781.06 120.437 810.243 126.436 833.161 138.683C843.142 172.644 843.142 207.296 837.019 241.806C941.469 232.745 1019.53 151.744 1098.15 89.5371C1144.37 40.2496 1217.78 36.3916 1279.31 20.8001C1329.43 37.011 1385.91 31.8257 1432.4 58.4603ZM1448.66 159.177C1457.72 83.9093 1371.52 43.3998 1306.64 57.3985C1291.58 76.1755 1258.41 89.891 1264.82 118.278C1316.25 159.584 1386.17 215.136 1448.66 159.177ZM1397.5 203.668C1348.87 225.117 1326.74 188.094 1298.37 164.911C1271.05 177.83 1244.68 192.483 1219.23 208.747C1192.05 204.748 1166.35 189.705 1138.9 187.829C1148.35 187.687 1162.62 183.705 1184.19 174.237C1189.39 145.603 1149.7 150.523 1155.7 121.888C1172.76 120.968 1189.8 120.702 1206.98 121.092C1199.66 143.072 1194.84 165.849 1196.19 189.032C1220.43 186.236 1242.56 173.848 1261.74 159.053C1272.39 131.869 1241.62 126.666 1224.17 116.685C1236.17 96.4391 1294.64 55.5403 1267.46 46.6208C1214.97 54.7439 1165.54 73.6625 1117.98 97.1116C1139.43 129.215 1102.68 187.563 1138.5 187.829C1131.98 187.439 1125.45 187.829 1118.66 189.156C1085.49 221.401 1136.9 277.626 1166.76 238.585C1192.74 211.933 1222.7 247.646 1250.54 251.894C1323.42 202.606 1307.68 295.199 1352.72 294.12C1349.54 254.708 1392.29 239.116 1397.5 203.668ZM1300.37 319.586C1329.15 300.278 1323.68 232.055 1254.15 275.095C1228.58 272.299 1208.59 254.318 1185.94 246.991C1169.29 260.583 1140.37 266.034 1142.11 292.545C1195.8 295.872 1247.23 312.791 1300.37 319.586ZM1210.06 359.671C1203.39 330.506 1169.96 328.895 1147.18 339.567C1112.92 355.813 1077.76 373.811 1037.12 363.14C1042.72 389.12 1048.72 414.958 1052.72 441.345C1109.61 425.488 1149.96 372.732 1210.06 359.671ZM1144.78 307.729C1135.31 308.933 1116.27 311.322 1106.8 312.384C1069.62 320.507 1032.72 329.302 995.694 337.567C999.694 342.363 1007.69 351.955 1011.68 356.751C1057.39 345.832 1119.33 355.282 1144.78 307.729ZM1054.18 276.157C1160.09 335.709 1114 210.747 1063.25 254.318C1078.7 228.869 1101.76 205.827 1104.16 174.644C1087.1 173.317 1070.45 174.379 1054.06 177.971C1031.14 205.544 996.102 270.688 1054.18 276.157ZM1076.31 162.256C1105.21 174.786 1131.45 124.826 1093.08 124.56C1082.43 131.073 1051.12 155.319 1076.31 162.256ZM969.856 427.753C989.695 427.488 1036.86 434.142 1032.74 404.18C1009.02 386.324 989.695 355.141 955.734 360.344C985.961 373.935 971.98 402.322 969.856 427.753ZM1035.8 173.034C1030.22 174.503 1019.27 177.564 1013.82 179.033C982.262 201.155 953.344 225.808 927.099 253.115C936.16 258.035 944.159 261.238 951.203 263.096C942.018 264.689 931.63 267.627 920.586 271.892C906.977 275.891 896.199 283.218 888.076 293.872C926.055 294.934 975.732 267.22 996.385 309.056C1002.51 281.873 994.916 267.361 978.139 263.096C1009.02 252.301 1013.29 200.482 1035.8 173.034ZM958.123 308.26C939.611 307.588 921.082 307.729 902.57 308.384C904.836 335.426 912.552 361.406 917.224 388.04C898.305 361.264 883.528 329.816 848.876 320.772C853.814 361.795 882.855 394.305 916.427 415.896C916.551 408.976 916.941 394.96 917.224 388.04C926.144 403.897 937.063 417.913 957.574 414.834C944.938 379.669 903.65 331.037 958.123 308.26ZM724.87 787.065C719.933 773.597 739.241 730.84 720.198 739.494C698.076 754.289 673.707 756.413 648.523 749.475C663.849 777.331 697.545 778.659 724.87 787.065ZM635.728 428.019C631.463 470.121 675.3 471.855 705.668 467.183C687.299 447.468 659.319 439.876 635.728 428.019ZM553.807 413.631C551.134 388.589 583.521 330.506 560.868 326.099C530.747 332.895 498.378 336.364 479.194 363.795C465.072 413.1 490.113 440.69 553.807 413.631ZM571.787 304.667C554.868 278.157 521.031 278.688 495.175 265.768C510.89 233.665 468.257 238.992 448.277 229.931C457.072 266.299 505.705 275.891 507.174 316.525C528.623 312.118 550.196 308.26 571.787 304.667ZM531.826 228.197C505.988 195.156 464.541 170.521 423.783 160.115C432.561 212.605 485.724 226.993 531.826 228.197ZM463.886 280.811C446.843 280.404 429.924 281.201 413.129 283.2C395.945 302.65 389.556 339.16 357.046 334.629C325.067 333.302 307.883 364.609 289.23 385.651C323.333 390.04 361.17 384.058 387.946 408.835C420.049 387.792 452.294 365.405 478.929 337.425C468.151 336.098 446.684 333.567 435.906 332.24C438.437 311.994 453.763 297.606 463.886 280.811ZM423.642 254.831C451.621 197.686 385.415 133.338 328.801 161.583C326.27 195.952 379.557 191.421 371.434 227.931C344.127 198.766 319.209 203.827 302.149 239.382C342.64 243.381 382.619 255.238 423.642 254.831ZM329.863 93.6429C327.863 137.603 375.027 156.929 412.599 147.195C383.15 131.869 361.701 102.686 329.863 93.6429ZM320.005 324.506C333.863 296.261 395.538 325.179 382.743 283.873C335.579 278.015 290.026 256.69 241.535 273.343C218.617 280.404 175.984 283.607 184.779 317.71C226.35 313.304 242.455 360.078 274.434 370.732C285.885 359.158 308.537 335.974 320.005 324.506ZM317.068 94.9702C326.27 37.5596 238.332 81.1131 209.821 41.5416C193.433 101.624 283.106 98.5628 317.068 94.9702ZM329.863 149.054C323.474 122.419 311.475 97.5009 279.372 109.234C240.455 141.054 306.148 145.727 329.863 149.054Z" fill="#F0C905"/>
<path d="M960.919 715.655C998.491 733.778 1027.94 771.332 1023.53 814.779C987.713 820.106 977.572 787.861 993.429 761.35C977.307 763.899 957.716 775.738 949.858 754.024C813.835 793.064 951.61 552.591 837.692 574.306L825.693 572.306C833.55 562.042 838.081 549.122 836.754 534.469C851.938 478.244 849 464.794 837.285 467.997L834.347 452.937C840.488 441.61 844.08 429.895 845.939 418.037L861.919 420.303C854.593 482.527 945.982 475.731 955.84 535C936.143 593.879 950.938 655.962 960.919 715.655Z" fill="#F0C905"/>
<path d="M186.248 248.584L185.841 257.238C124.165 294.279 88.0626 225.4 41.4297 197.952C35.041 153.195 18.6531 110.951 0 70.0522C38.6336 30.0913 87.7971 17.0306 139.739 16.7651L139.881 24.2158C129.758 24.2158 119.086 27.2774 108.574 34.1971C85.5141 43.2582 62.472 52.1777 38.3681 58.3188C35.4303 113.871 40.8988 181.936 98.5748 207.119C117.246 240.178 150.818 246.974 186.248 248.584Z" fill="#F0C905"/>
<path d="M183.045 165.583C185.045 174.644 189.027 186.236 195.292 200.889C73.3914 223.011 141.474 177.175 184.107 186.236C184.779 178.502 184.107 171.706 182.248 165.725L183.045 165.583Z" fill="#F0C905"/>
</g>
<defs>
<clipPath id="clip0_1_55">
<rect width="1490.04" height="882.348" fill="white"/>
</clipPath>
</defs>
</svg>
